<svg width="35" height="38" viewBox="0 0 35 38" fill="none" xmlns="http://www.w3.org/2000/svg">
<path d="M17.3658 1.07069C17.6066 0.776282 17.9048 0.531464 18.2431 0.35041C18.5814 0.169355 18.953 0.0556581 19.3366 0.0159015C19.7202 -0.0238552 20.108 0.0111175 20.4776 0.118795C20.8472 0.226473 21.1913 0.404717 21.49 0.643211L31.0042 8.23526C31.5274 8.65268 31.8861 9.23461 32.0191 9.8817C32.1521 10.5288 32.0511 11.2009 31.7333 11.7833C30.9015 11.5349 30.0365 11.4091 29.1667 11.41H28.2917L29.1608 10.4411L24.15 6.44269L20.0171 11.4129H16.2575L21.8896 4.64157L19.6437 2.84901L12.6496 11.41H8.91625L17.3658 1.07069ZM24.7917 25.6593C24.4049 25.6593 24.034 25.8095 23.7605 26.0767C23.487 26.3439 23.3333 26.7064 23.3333 27.0843C23.3333 27.4622 23.487 27.8246 23.7605 28.0919C24.034 28.3591 24.4049 28.5092 24.7917 28.5092H27.7083C28.0951 28.5092 28.466 28.3591 28.7395 28.0919C29.013 27.8246 29.1667 27.4622 29.1667 27.0843C29.1667 26.7064 29.013 26.3439 28.7395 26.0767C28.466 25.8095 28.0951 25.6593 27.7083 25.6593H24.7917ZM2.91667 12.8349C2.91667 12.457 3.07031 12.0946 3.3438 11.8274C3.61729 11.5601 3.98823 11.41 4.375 11.41H6.0025L8.32125 8.56014H4.375C3.21468 8.56014 2.10188 9.01052 1.28141 9.8122C0.460936 10.6139 0 11.7012 0 12.8349V29.9342C0 31.8237 0.768227 33.6359 2.13568 34.9721C3.50313 36.3082 5.3578 37.0588 7.29167 37.0588H29.1667C30.7138 37.0588 32.1975 36.4583 33.2915 35.3894C34.3854 34.3205 35 32.8708 35 31.3591V19.9596C35 18.448 34.3854 16.9982 33.2915 15.9293C32.1975 14.8604 30.7138 14.2599 29.1667 14.2599H4.375C3.98823 14.2599 3.61729 14.1098 3.3438 13.8425C3.07031 13.5753 2.91667 13.2129 2.91667 12.8349ZM2.91667 29.9342V16.8675C3.37167 17.0243 3.86458 17.1097 4.375 17.1097H29.1667C29.9402 17.1097 30.6821 17.41 31.2291 17.9445C31.776 18.4789 32.0833 19.2038 32.0833 19.9596V31.3591C32.0833 32.1149 31.776 32.8398 31.2291 33.3742C30.6821 33.9087 29.9402 34.209 29.1667 34.209H7.29167C6.13134 34.209 5.01855 33.7586 4.19807 32.9569C3.3776 32.1552 2.91667 31.0679 2.91667 29.9342Z" fill="#193152"/>
</svg>
